<svg width="17" height="17" viewBox="0 0 17 17" fill="none" xmlns="http://www.w3.org/2000/svg">
<path d="M8.50048 1.59387C7.13448 1.59387 5.79915 1.99894 4.66336 2.75785C3.52757 3.51676 2.64233 4.59543 2.11958 5.85745C1.59683 7.11947 1.46006 8.50817 1.72655 9.84792C1.99305 11.1877 2.65084 12.4183 3.61675 13.3842C4.58266 14.3501 5.81331 15.0079 7.15306 15.2744C8.49282 15.5409 9.88151 15.4042 11.1435 14.8814C12.4056 14.3587 13.4842 13.4734 14.2431 12.3376C15.002 11.2018 15.4071 9.86651 15.4071 8.50051C15.4052 6.66935 14.6769 4.91374 13.3821 3.61891C12.0872 2.32409 10.3316 1.59581 8.50048 1.59387ZM8.50048 14.3446C7.34463 14.3446 6.21474 14.0018 5.25368 13.3597C4.29263 12.7175 3.54358 11.8048 3.10126 10.7369C2.65893 9.66907 2.5432 8.49402 2.7687 7.36038C2.99419 6.22674 3.55079 5.18543 4.36809 4.36812C5.1854 3.55081 6.22672 2.99422 7.36036 2.76872C8.494 2.54323 9.66904 2.65896 10.7369 3.10128C11.8048 3.54361 12.7175 4.29266 13.3596 5.25371C14.0018 6.21477 14.3446 7.34466 14.3446 8.50051C14.3428 10.0499 13.7265 11.5354 12.6309 12.631C11.5353 13.7265 10.0499 14.3428 8.50048 14.3446ZM11.6882 8.50051C11.6882 8.64141 11.6322 8.77654 11.5325 8.87618C11.4329 8.97581 11.2978 9.03179 11.1569 9.03179H9.03176V11.1569C9.03176 11.2978 8.97578 11.4329 8.87615 11.5326C8.77652 11.6322 8.64138 11.6882 8.50048 11.6882C8.35957 11.6882 8.22444 11.6322 8.12481 11.5326C8.02517 11.4329 7.9692 11.2978 7.9692 11.1569V9.03179H5.84408C5.70318 9.03179 5.56804 8.97581 5.46841 8.87618C5.36878 8.77654 5.3128 8.64141 5.3128 8.50051C5.3128 8.3596 5.36878 8.22447 5.46841 8.12484C5.56804 8.0252 5.70318 7.96923 5.84408 7.96923H7.9692V5.84411C7.9692 5.7032 8.02517 5.56807 8.12481 5.46844C8.22444 5.3688 8.35957 5.31283 8.50048 5.31283C8.64138 5.31283 8.77652 5.3688 8.87615 5.46844C8.97578 5.56807 9.03176 5.7032 9.03176 5.84411V7.96923H11.1569C11.2978 7.96923 11.4329 8.0252 11.5325 8.12484C11.6322 8.22447 11.6882 8.3596 11.6882 8.50051Z" fill="white"/>
</svg>
