<svg width="19" height="19" viewBox="0 0 19 19" fill="none" xmlns="http://www.w3.org/2000/svg">
<path d="M13.0261 9.47359C13.0261 9.63062 12.9637 9.78123 12.8526 9.89227C12.7416 10.0033 12.591 10.0657 12.434 10.0657H6.51303C6.356 10.0657 6.2054 10.0033 6.09436 9.89227C5.98332 9.78123 5.92094 9.63062 5.92094 9.47359C5.92094 9.31656 5.98332 9.16596 6.09436 9.05492C6.2054 8.94388 6.356 8.8815 6.51303 8.8815H12.434C12.591 8.8815 12.7416 8.94388 12.8526 9.05492C12.9637 9.16596 13.0261 9.31656 13.0261 9.47359ZM17.1707 9.47359C17.1707 10.996 16.7193 12.4841 15.8735 13.7499C15.0277 15.0157 13.8256 16.0023 12.4191 16.5849C11.0126 17.1675 9.46496 17.3199 7.97185 17.0229C6.47873 16.7259 5.10722 15.9928 4.03074 14.9164C2.95427 13.8399 2.22118 12.4684 1.92418 10.9752C1.62718 9.48213 1.77961 7.93447 2.3622 6.52799C2.94478 5.12151 3.93135 3.91937 5.19715 3.07358C6.46296 2.2278 7.95114 1.77637 9.4735 1.77637C11.5143 1.77852 13.4708 2.59017 14.9139 4.03321C16.3569 5.47625 17.1686 7.43282 17.1707 9.47359ZM15.9865 9.47359C15.9865 8.18543 15.6046 6.92621 14.8889 5.85514C14.1732 4.78408 13.156 3.94929 11.9659 3.45633C10.7758 2.96337 9.46628 2.83439 8.20287 3.0857C6.93947 3.33701 5.77896 3.95731 4.86809 4.86818C3.95723 5.77904 3.33692 6.93956 3.08561 8.20296C2.83431 9.46637 2.96329 10.7759 3.45624 11.966C3.9492 13.1561 4.78399 14.1733 5.85505 14.889C6.92612 15.6046 8.18535 15.9866 9.4735 15.9866C11.2003 15.9847 12.8557 15.2978 14.0768 14.0768C15.2978 12.8558 15.9846 11.2004 15.9865 9.47359Z" fill="white"/>
</svg>
